<?xml version="1.0" encoding="UTF-8" standalone="no"?>
<!DOCTYPE svg PUBLIC "-//W3C//DTD SVG 1.1//EN"
 "http://www.w3.org/Graphics/SVG/1.1/DTD/svg11.dtd">
<!-- Generated by graphviz version 14.1.3 (20260303.0454)
 -->
<!-- Title: project_category_entity Pages: 1 -->
<svg width="1027pt" height="706pt"
 viewBox="0.00 0.00 1027.00 706.00" xmlns="http://www.w3.org/2000/svg" xmlns:xlink="http://www.w3.org/1999/xlink">
<g id="graph0" class="graph" transform="scale(1 1) rotate(0) translate(18 688.27)">
<title>project_category_entity</title>
<polygon fill="white" stroke="none" points="-18,18 -18,-688.27 1008.61,-688.27 1008.61,18 -18,18"/>
<!-- entity -->
<g id="node1" class="node">
<title>entity</title>
<polygon fill="none" stroke="#111111" stroke-width="1.3" points="574.92,-307.9 430.92,-307.9 430.92,-239.5 574.92,-239.5 574.92,-307.9"/>
<text xml:space="preserve" text-anchor="middle" x="502.92" y="-268.55" font-family="PingFang SC" font-size="22.00">项目分类</text>
</g>
<!-- id -->
<g id="node2" class="node">
<title>id</title>
<ellipse fill="none" stroke="#111111" stroke-width="1.3" cx="502.92" cy="-642.34" rx="57.6" ry="27.93"/>
<text xml:space="preserve" text-anchor="middle" x="502.92" y="-637.19" font-family="PingFang SC" font-size="22.00">分类ID</text>
</g>
<!-- entity&#45;&#45;id -->
<g id="edge1" class="edge">
<title>entity&#45;&#45;id</title>
<path fill="none" stroke="#111111" stroke-width="1.2" d="M502.92,-308.38C502.92,-380.97 502.92,-547.68 502.92,-614.19"/>
</g>
<!-- name -->
<g id="node3" class="node">
<title>name</title>
<ellipse fill="none" stroke="#111111" stroke-width="1.3" cx="149.63" cy="-458.02" rx="72.83" ry="27.93"/>
<text xml:space="preserve" text-anchor="middle" x="149.63" y="-452.87" font-family="PingFang SC" font-size="22.00">分类名称</text>
</g>
<!-- entity&#45;&#45;name -->
<g id="edge2" class="edge">
<title>entity&#45;&#45;name</title>
<path fill="none" stroke="#111111" stroke-width="1.2" d="M436.47,-308.37C365.31,-345.49 254.43,-403.34 193.47,-435.15"/>
</g>
<!-- description -->
<g id="node4" class="node">
<title>description</title>
<ellipse fill="none" stroke="#111111" stroke-width="1.3" cx="856.21" cy="-458.02" rx="72.83" ry="27.93"/>
<text xml:space="preserve" text-anchor="middle" x="856.21" y="-452.87" font-family="PingFang SC" font-size="22.00">项目描述</text>
</g>
<!-- entity&#45;&#45;description -->
<g id="edge3" class="edge">
<title>entity&#45;&#45;description</title>
<path fill="none" stroke="#111111" stroke-width="1.2" d="M569.37,-308.37C640.53,-345.49 751.41,-403.34 812.37,-435.15"/>
</g>
<!-- sort_order -->
<g id="node5" class="node">
<title>sort_order</title>
<ellipse fill="none" stroke="#111111" stroke-width="1.3" cx="72.83" cy="-273.7" rx="72.83" ry="27.93"/>
<text xml:space="preserve" text-anchor="middle" x="72.83" y="-268.55" font-family="PingFang SC" font-size="22.00">排序序号</text>
</g>
<!-- entity&#45;&#45;sort_order -->
<g id="edge4" class="edge">
<title>entity&#45;&#45;sort_order</title>
<path fill="none" stroke="#111111" stroke-width="1.2" d="M430.45,-273.7C351.33,-273.7 225.34,-273.7 145.96,-273.7"/>
</g>
<!-- status -->
<g id="node6" class="node">
<title>status</title>
<ellipse fill="none" stroke="#111111" stroke-width="1.3" cx="933.01" cy="-273.7" rx="57.6" ry="27.93"/>
<text xml:space="preserve" text-anchor="middle" x="933.01" y="-268.55" font-family="PingFang SC" font-size="22.00">状态</text>
</g>
<!-- entity&#45;&#45;status -->
<g id="edge5" class="edge">
<title>entity&#45;&#45;status</title>
<path fill="none" stroke="#111111" stroke-width="1.2" d="M575.39,-273.7C659.78,-273.7 797.48,-273.7 875.08,-273.7"/>
</g>
<!-- create_time -->
<g id="node7" class="node">
<title>create_time</title>
<ellipse fill="none" stroke="#111111" stroke-width="1.3" cx="195.71" cy="-27.93" rx="72.83" ry="27.93"/>
<text xml:space="preserve" text-anchor="middle" x="195.71" y="-22.78" font-family="PingFang SC" font-size="22.00">创建时间</text>
</g>
<!-- entity&#45;&#45;create_time -->
<g id="edge6" class="edge">
<title>entity&#45;&#45;create_time</title>
<path fill="none" stroke="#111111" stroke-width="1.2" d="M459.56,-239C397.04,-188.99 283.02,-97.78 227.62,-53.46"/>
</g>
<!-- update_time -->
<g id="node8" class="node">
<title>update_time</title>
<ellipse fill="none" stroke="#111111" stroke-width="1.3" cx="810.13" cy="-27.93" rx="72.83" ry="27.93"/>
<text xml:space="preserve" text-anchor="middle" x="810.13" y="-22.78" font-family="PingFang SC" font-size="22.00">更新时间</text>
</g>
<!-- entity&#45;&#45;update_time -->
<g id="edge7" class="edge">
<title>entity&#45;&#45;update_time</title>
<path fill="none" stroke="#111111" stroke-width="1.2" d="M546.28,-239C608.8,-188.99 722.82,-97.78 778.22,-53.46"/>
</g>
</g>
</svg>
