<?xml version="1.0" encoding="UTF-8" standalone="no"?>
<!DOCTYPE svg PUBLIC "-//W3C//DTD SVG 1.1//EN"
 "http://www.w3.org/Graphics/SVG/1.1/DTD/svg11.dtd">
<!-- Generated by graphviz version 14.1.3 (20260303.0454)
 -->
<!-- Title: er35 Pages: 1 -->
<svg width="1046pt" height="1013pt"
 viewBox="0.00 0.00 1046.00 1013.00" xmlns="http://www.w3.org/2000/svg" xmlns:xlink="http://www.w3.org/1999/xlink">
<g id="graph0" class="graph" transform="scale(1 1) rotate(0) translate(4 1009)">
<title>er35</title>
<polygon fill="white" stroke="none" points="-4,4 -4,-1009 1042,-1009 1042,4 -4,4"/>
<!-- project -->
<g id="node1" class="node">
<title>project</title>
<polygon fill="#e6e6e6" stroke="none" points="896.88,-957.62 896.88,-985.88 1024.12,-985.88 1024.12,-957.62 896.88,-957.62"/>
<text xml:space="preserve" text-anchor="start" x="900.88" y="-969.58" font-family="PingFang SC" font-weight="bold" font-size="14.00">project_category</text>
<text xml:space="preserve" text-anchor="start" x="900.88" y="-938.62" font-family="PingFang SC" font-size="14.00">PK id</text>
<text xml:space="preserve" text-anchor="start" x="900.88" y="-910.38" font-family="PingFang SC" font-size="14.00">name</text>
<text xml:space="preserve" text-anchor="start" x="900.88" y="-882.12" font-family="PingFang SC" font-size="14.00">sort_order</text>
<text xml:space="preserve" text-anchor="start" x="900.88" y="-853.88" font-family="PingFang SC" font-size="14.00">status</text>
<polygon fill="none" stroke="black" points="895.88,-843.62 895.88,-986.88 1025.12,-986.88 1025.12,-843.62 895.88,-843.62"/>
</g>
<!-- category -->
<g id="node2" class="node">
<title>category</title>
<polygon fill="#e6e6e6" stroke="none" points="892,-706 892,-734.25 1029,-734.25 1029,-706 892,-706"/>
<text xml:space="preserve" text-anchor="start" x="896" y="-717.95" font-family="PingFang SC" font-weight="bold" font-size="14.00">question_category</text>
<text xml:space="preserve" text-anchor="start" x="896" y="-687" font-family="PingFang SC" font-size="14.00">PK id</text>
<text xml:space="preserve" text-anchor="start" x="896" y="-658.75" font-family="PingFang SC" font-size="14.00">FK project_id</text>
<text xml:space="preserve" text-anchor="start" x="896" y="-630.5" font-family="PingFang SC" font-size="14.00">FK creator_id</text>
<text xml:space="preserve" text-anchor="start" x="896" y="-602.25" font-family="PingFang SC" font-size="14.00">name</text>
<text xml:space="preserve" text-anchor="start" x="896" y="-574" font-family="PingFang SC" font-size="14.00">view_count</text>
<polygon fill="none" stroke="black" points="891,-563.75 891,-735.25 1030,-735.25 1030,-563.75 891,-563.75"/>
</g>
<!-- project&#45;&gt;category -->
<g id="edge1" class="edge">
<title>project&#45;&gt;category</title>
<path fill="none" stroke="#111111" d="M960.5,-839.73C960.5,-810.92 960.5,-777.58 960.5,-746.98"/>
<polygon fill="#111111" stroke="#111111" points="962.95,-747.37 960.5,-740.37 958.05,-747.37 962.95,-747.37"/>
<text xml:space="preserve" text-anchor="middle" x="987.5" y="-779.2" font-family="PingFang SC" font-size="14.00">包含 1:N</text>
</g>
<!-- question -->
<g id="node3" class="node">
<title>question</title>
<polygon fill="#e6e6e6" stroke="none" points="611.5,-440.25 611.5,-468.5 721.5,-468.5 721.5,-440.25 611.5,-440.25"/>
<text xml:space="preserve" text-anchor="start" x="636.5" y="-452.2" font-family="PingFang SC" font-weight="bold" font-size="14.00">question</text>
<text xml:space="preserve" text-anchor="start" x="615.5" y="-421.25" font-family="PingFang SC" font-size="14.00">PK id</text>
<text xml:space="preserve" text-anchor="start" x="615.5" y="-393" font-family="PingFang SC" font-size="14.00">FK project_id</text>
<text xml:space="preserve" text-anchor="start" x="615.5" y="-364.75" font-family="PingFang SC" font-size="14.00">FK category_id</text>
<text xml:space="preserve" text-anchor="start" x="615.5" y="-336.5" font-family="PingFang SC" font-size="14.00">title</text>
<text xml:space="preserve" text-anchor="start" x="615.5" y="-308.25" font-family="PingFang SC" font-size="14.00">difficulty</text>
<text xml:space="preserve" text-anchor="start" x="615.5" y="-280" font-family="PingFang SC" font-size="14.00">type</text>
<polygon fill="none" stroke="black" points="610.5,-269.75 610.5,-469.5 722.5,-469.5 722.5,-269.75 610.5,-269.75"/>
</g>
<!-- category&#45;&gt;question -->
<g id="edge2" class="edge">
<title>category&#45;&gt;question</title>
<path fill="none" stroke="#111111" d="M932.13,-560.02C923.35,-541 912.26,-521.99 898.5,-506.5 854.64,-457.13 788.39,-420.82 737.91,-398.23"/>
<polygon fill="#111111" stroke="#111111" points="739.04,-396.05 731.64,-395.47 737.06,-400.53 739.04,-396.05"/>
<text xml:space="preserve" text-anchor="middle" x="940.71" y="-513.45" font-family="PingFang SC" font-size="14.00">归属 1:N</text>
</g>
<!-- record -->
<g id="node6" class="node">
<title>record</title>
<polygon fill="#e6e6e6" stroke="none" points="374.75,-706 374.75,-734.25 534.25,-734.25 534.25,-706 374.75,-706"/>
<text xml:space="preserve" text-anchor="start" x="378.75" y="-717.95" font-family="PingFang SC" font-weight="bold" font-size="14.00">user_question_record</text>
<text xml:space="preserve" text-anchor="start" x="378.75" y="-687" font-family="PingFang SC" font-size="14.00">PK id</text>
<text xml:space="preserve" text-anchor="start" x="378.75" y="-658.75" font-family="PingFang SC" font-size="14.00">FK user_id</text>
<text xml:space="preserve" text-anchor="start" x="378.75" y="-630.5" font-family="PingFang SC" font-size="14.00">FK question_id</text>
<text xml:space="preserve" text-anchor="start" x="378.75" y="-602.25" font-family="PingFang SC" font-size="14.00">user_answer</text>
<text xml:space="preserve" text-anchor="start" x="378.75" y="-574" font-family="PingFang SC" font-size="14.00">is_submitted</text>
<polygon fill="none" stroke="black" points="373.75,-563.75 373.75,-735.25 535.25,-735.25 535.25,-563.75 373.75,-563.75"/>
</g>
<!-- question&#45;&gt;record -->
<g id="edge5" class="edge">
<title>question&#45;&gt;record</title>
<path fill="none" stroke="#111111" d="M602.73,-454.22C578.88,-485.47 551.62,-521.2 527.04,-553.42"/>
<polygon fill="#111111" stroke="#111111" points="525.38,-551.56 523.08,-558.61 529.27,-554.53 525.38,-551.56"/>
<text xml:space="preserve" text-anchor="middle" x="587.5" y="-513.45" font-family="PingFang SC" font-size="14.00">对应 1:N</text>
</g>
<!-- comment -->
<g id="node8" class="node">
<title>comment</title>
<polygon fill="#e6e6e6" stroke="none" points="367.5,-146.25 367.5,-174.5 507.5,-174.5 507.5,-146.25 367.5,-146.25"/>
<text xml:space="preserve" text-anchor="start" x="371.5" y="-158.2" font-family="PingFang SC" font-weight="bold" font-size="14.00">question_comment</text>
<text xml:space="preserve" text-anchor="start" x="371.5" y="-127.25" font-family="PingFang SC" font-size="14.00">PK id</text>
<text xml:space="preserve" text-anchor="start" x="371.5" y="-99" font-family="PingFang SC" font-size="14.00">FK question_id</text>
<text xml:space="preserve" text-anchor="start" x="371.5" y="-70.75" font-family="PingFang SC" font-size="14.00">FK user_id</text>
<text xml:space="preserve" text-anchor="start" x="371.5" y="-42.5" font-family="PingFang SC" font-size="14.00">parent_id</text>
<text xml:space="preserve" text-anchor="start" x="371.5" y="-14.25" font-family="PingFang SC" font-size="14.00">like_count</text>
<polygon fill="none" stroke="black" points="366.5,-4 366.5,-175.5 508.5,-175.5 508.5,-4 366.5,-4"/>
</g>
<!-- question&#45;&gt;comment -->
<g id="edge8" class="edge">
<title>question&#45;&gt;comment</title>
<path fill="none" stroke="#111111" d="M602.71,-291.22C575.68,-258.42 543.91,-219.87 515.5,-185.4"/>
<polygon fill="#111111" stroke="#111111" points="517.54,-184.02 511.2,-180.18 513.76,-187.14 517.54,-184.02"/>
<text xml:space="preserve" text-anchor="middle" x="586.12" y="-219.45" font-family="PingFang SC" font-size="14.00">被评论 1:N</text>
</g>
<!-- wrong -->
<g id="node9" class="node">
<title>wrong</title>
<polygon fill="#e6e6e6" stroke="none" points="639.62,-146.25 639.62,-174.5 801.38,-174.5 801.38,-146.25 639.62,-146.25"/>
<text xml:space="preserve" text-anchor="start" x="643.62" y="-158.2" font-family="PingFang SC" font-weight="bold" font-size="14.00">wrong_question_book</text>
<text xml:space="preserve" text-anchor="start" x="643.62" y="-127.25" font-family="PingFang SC" font-size="14.00">PK id</text>
<text xml:space="preserve" text-anchor="start" x="643.62" y="-99" font-family="PingFang SC" font-size="14.00">FK user_id</text>
<text xml:space="preserve" text-anchor="start" x="643.62" y="-70.75" font-family="PingFang SC" font-size="14.00">FK question_id</text>
<text xml:space="preserve" text-anchor="start" x="643.62" y="-42.5" font-family="PingFang SC" font-size="14.00">wrong_count</text>
<text xml:space="preserve" text-anchor="start" x="643.62" y="-14.25" font-family="PingFang SC" font-size="14.00">last_wrong_time</text>
<polygon fill="none" stroke="black" points="638.62,-4 638.62,-175.5 802.38,-175.5 802.38,-4 638.62,-4"/>
</g>
<!-- question&#45;&gt;wrong -->
<g id="edge10" class="edge">
<title>question&#45;&gt;wrong</title>
<path fill="none" stroke="#111111" d="M664.88,-265.98C666.03,-248.02 668.15,-229.62 671.75,-212.5 673.49,-204.23 675.75,-195.79 678.34,-187.42"/>
<polygon fill="#111111" stroke="#111111" points="680.64,-188.27 680.46,-180.85 675.98,-186.76 680.64,-188.27"/>
<text xml:space="preserve" text-anchor="middle" x="720.12" y="-219.45" font-family="PingFang SC" font-size="14.00">进入错题本 1:N</text>
</g>
<!-- history -->
<g id="node10" class="node">
<title>history</title>
<polygon fill="#e6e6e6" stroke="none" points="9,-132.12 9,-160.38 170,-160.38 170,-132.12 9,-132.12"/>
<text xml:space="preserve" text-anchor="start" x="13" y="-144.07" font-family="PingFang SC" font-weight="bold" font-size="14.00">user_question_history</text>
<text xml:space="preserve" text-anchor="start" x="13" y="-113.12" font-family="PingFang SC" font-size="14.00">PK id</text>
<text xml:space="preserve" text-anchor="start" x="13" y="-84.88" font-family="PingFang SC" font-size="14.00">FK user_id</text>
<text xml:space="preserve" text-anchor="start" x="13" y="-56.62" font-family="PingFang SC" font-size="14.00">FK question_id</text>
<text xml:space="preserve" text-anchor="start" x="13" y="-28.38" font-family="PingFang SC" font-size="14.00">visit_time</text>
<polygon fill="none" stroke="black" points="8,-18.12 8,-161.38 171,-161.38 171,-18.12 8,-18.12"/>
</g>
<!-- question&#45;&gt;history -->
<g id="edge12" class="edge">
<title>question&#45;&gt;history</title>
<path fill="none" stroke="#111111" d="M602.55,-285.25C594.68,-277.99 586.28,-271.3 577.5,-265.75 531.02,-236.36 510.47,-249.98 458.25,-232.75 364.72,-201.88 260.12,-160.98 186.28,-131"/>
<polygon fill="#111111" stroke="#111111" points="187.59,-128.89 180.19,-128.52 185.75,-133.43 187.59,-128.89"/>
<text xml:space="preserve" text-anchor="middle" x="492.38" y="-219.45" font-family="PingFang SC" font-size="14.00">被访问 1:N</text>
</g>
<!-- user -->
<g id="node4" class="node">
<title>user</title>
<polygon fill="#e6e6e6" stroke="none" points="243.5,-971.75 243.5,-1000 317.5,-1000 317.5,-971.75 243.5,-971.75"/>
<text xml:space="preserve" text-anchor="start" x="265.5" y="-983.7" font-family="PingFang SC" font-weight="bold" font-size="14.00">user</text>
<text xml:space="preserve" text-anchor="start" x="247.5" y="-952.75" font-family="PingFang SC" font-size="14.00">PK id</text>
<text xml:space="preserve" text-anchor="start" x="247.5" y="-924.5" font-family="PingFang SC" font-size="14.00">username</text>
<text xml:space="preserve" text-anchor="start" x="247.5" y="-896.25" font-family="PingFang SC" font-size="14.00">email</text>
<text xml:space="preserve" text-anchor="start" x="247.5" y="-868" font-family="PingFang SC" font-size="14.00">phone</text>
<text xml:space="preserve" text-anchor="start" x="247.5" y="-839.75" font-family="PingFang SC" font-size="14.00">status</text>
<polygon fill="none" stroke="black" points="242.5,-829.5 242.5,-1001 318.5,-1001 318.5,-829.5 242.5,-829.5"/>
</g>
<!-- profile -->
<g id="node5" class="node">
<title>profile</title>
<polygon fill="#e6e6e6" stroke="none" points="103.5,-706 103.5,-734.25 195.5,-734.25 195.5,-706 103.5,-706"/>
<text xml:space="preserve" text-anchor="start" x="107.5" y="-717.95" font-family="PingFang SC" font-weight="bold" font-size="14.00">user_profile</text>
<text xml:space="preserve" text-anchor="start" x="107.5" y="-687" font-family="PingFang SC" font-size="14.00">PK id</text>
<text xml:space="preserve" text-anchor="start" x="107.5" y="-658.75" font-family="PingFang SC" font-size="14.00">FK user_id</text>
<text xml:space="preserve" text-anchor="start" x="107.5" y="-630.5" font-family="PingFang SC" font-size="14.00">nickname</text>
<text xml:space="preserve" text-anchor="start" x="107.5" y="-602.25" font-family="PingFang SC" font-size="14.00">avatar</text>
<text xml:space="preserve" text-anchor="start" x="107.5" y="-574" font-family="PingFang SC" font-size="14.00">occupation</text>
<polygon fill="none" stroke="black" points="102.5,-563.75 102.5,-735.25 196.5,-735.25 196.5,-563.75 102.5,-563.75"/>
</g>
<!-- user&#45;&gt;profile -->
<g id="edge3" class="edge">
<title>user&#45;&gt;profile</title>
<path fill="none" stroke="#111111" d="M234.6,-858.48C219.81,-838.55 204.33,-815.36 193,-792.5 185.87,-778.11 179.63,-762.31 174.27,-746.64"/>
<polygon fill="#111111" stroke="#111111" points="176.73,-746.27 172.19,-740.4 172.08,-747.82 176.73,-746.27"/>
<text xml:space="preserve" text-anchor="middle" x="217.75" y="-779.2" font-family="PingFang SC" font-size="14.00">扩展 1:1</text>
</g>
<!-- user&#45;&gt;record -->
<g id="edge4" class="edge">
<title>user&#45;&gt;record</title>
<path fill="none" stroke="#111111" d="M326.44,-844.61C346.37,-814.4 370.03,-778.54 391.55,-745.91"/>
<polygon fill="#111111" stroke="#111111" points="393.47,-747.46 395.28,-740.27 389.38,-744.76 393.47,-747.46"/>
<text xml:space="preserve" text-anchor="middle" x="399.72" y="-779.2" font-family="PingFang SC" font-size="14.00">作答 1:N</text>
</g>
<!-- user&#45;&gt;comment -->
<g id="edge7" class="edge">
<title>user&#45;&gt;comment</title>
<path fill="none" stroke="#111111" d="M274.75,-825.76C269.29,-698.56 269.53,-458.17 331.5,-265.75 340.22,-238.67 353.86,-211.4 368.49,-186.72"/>
<polygon fill="#111111" stroke="#111111" points="370.55,-188.05 372.06,-180.79 366.35,-185.52 370.55,-188.05"/>
<text xml:space="preserve" text-anchor="middle" x="324.69" y="-513.45" font-family="PingFang SC" font-size="14.00">发表评论 1:N</text>
</g>
<!-- user&#45;&gt;wrong -->
<g id="edge9" class="edge">
<title>user&#45;&gt;wrong</title>
<path fill="none" stroke="#111111" d="M326.29,-893.78C386.59,-865.28 493.71,-809.18 568.5,-739.25 673.99,-640.61 705.97,-609.16 755.5,-473.5 795.42,-364.18 801.39,-326.18 776.5,-212.5 774.67,-204.15 772.21,-195.68 769.34,-187.31"/>
<polygon fill="#111111" stroke="#111111" points="771.66,-186.51 766.99,-180.75 767.05,-188.16 771.66,-186.51"/>
<text xml:space="preserve" text-anchor="middle" x="783.41" y="-513.45" font-family="PingFang SC" font-size="14.00">记录错题 1:N</text>
</g>
<!-- user&#45;&gt;history -->
<g id="edge11" class="edge">
<title>user&#45;&gt;history</title>
<path fill="none" stroke="#111111" d="M234.9,-892.08C183.74,-864.37 103.5,-811.62 69.5,-739.25 -18.23,-552.51 29.82,-301.01 64.26,-173.01"/>
<polygon fill="#111111" stroke="#111111" points="66.53,-174 66.01,-166.6 61.8,-172.71 66.53,-174"/>
<text xml:space="preserve" text-anchor="middle" x="47.73" y="-513.45" font-family="PingFang SC" font-size="14.00">浏览 1:N</text>
</g>
<!-- analysis -->
<g id="node7" class="node">
<title>analysis</title>
<polygon fill="#e6e6e6" stroke="none" points="365.38,-426.12 365.38,-454.38 543.62,-454.38 543.62,-426.12 365.38,-426.12"/>
<text xml:space="preserve" text-anchor="start" x="369.38" y="-438.07" font-family="PingFang SC" font-weight="bold" font-size="14.00">user_answer_ai_analysis</text>
<text xml:space="preserve" text-anchor="start" x="369.38" y="-407.12" font-family="PingFang SC" font-size="14.00">PK id</text>
<text xml:space="preserve" text-anchor="start" x="369.38" y="-378.88" font-family="PingFang SC" font-size="14.00">FK record_id</text>
<text xml:space="preserve" text-anchor="start" x="369.38" y="-350.62" font-family="PingFang SC" font-size="14.00">accuracy_rate</text>
<text xml:space="preserve" text-anchor="start" x="369.38" y="-322.38" font-family="PingFang SC" font-size="14.00">ai_source</text>
<text xml:space="preserve" text-anchor="start" x="369.38" y="-294.12" font-family="PingFang SC" font-size="14.00">is_deleted</text>
<polygon fill="none" stroke="black" points="364.38,-283.88 364.38,-455.38 544.62,-455.38 544.62,-283.88 364.38,-283.88"/>
</g>
<!-- record&#45;&gt;analysis -->
<g id="edge6" class="edge">
<title>record&#45;&gt;analysis</title>
<path fill="none" stroke="#111111" d="M454.5,-559.81C454.5,-530.34 454.5,-497.38 454.5,-467.34"/>
<polygon fill="#111111" stroke="#111111" points="456.95,-467.46 454.5,-460.46 452.05,-467.46 456.95,-467.46"/>
<text xml:space="preserve" text-anchor="middle" x="479.25" y="-513.45" font-family="PingFang SC" font-size="14.00">分析 1:1</text>
</g>
</g>
</svg>
