<?xml version="1.0" encoding="UTF-8" standalone="no"?>
<!DOCTYPE svg PUBLIC "-//W3C//DTD SVG 1.1//EN"
 "http://www.w3.org/Graphics/SVG/1.1/DTD/svg11.dtd">
<!-- Generated by graphviz version 14.1.3 (20260303.0454)
 -->
<!-- Title: question_comment_entity Pages: 1 -->
<svg width="1051pt" height="838pt"
 viewBox="0.00 0.00 1051.00 838.00" xmlns="http://www.w3.org/2000/svg" xmlns:xlink="http://www.w3.org/1999/xlink">
<g id="graph0" class="graph" transform="scale(1 1) rotate(0) translate(18 819.71)">
<title>question_comment_entity</title>
<polygon fill="white" stroke="none" points="-18,18 -18,-819.71 1033.29,-819.71 1033.29,18 -18,18"/>
<!-- entity -->
<g id="node1" class="node">
<title>entity</title>
<polygon fill="none" stroke="#111111" stroke-width="1.3" points="579.91,-435.05 435.91,-435.05 435.91,-366.65 579.91,-366.65 579.91,-435.05"/>
<text xml:space="preserve" text-anchor="middle" x="507.91" y="-395.7" font-family="PingFang SC" font-size="22.00">题目评论</text>
</g>
<!-- id -->
<g id="node2" class="node">
<title>id</title>
<ellipse fill="none" stroke="#111111" stroke-width="1.3" cx="507.91" cy="-773.78" rx="57.6" ry="27.93"/>
<text xml:space="preserve" text-anchor="middle" x="507.91" y="-768.63" font-family="PingFang SC" font-size="22.00">评论ID</text>
</g>
<!-- entity&#45;&#45;id -->
<g id="edge1" class="edge">
<title>entity&#45;&#45;id</title>
<path fill="none" stroke="#111111" stroke-width="1.2" d="M507.91,-435.6C507.91,-508.83 507.91,-677.81 507.91,-745.24"/>
</g>
<!-- question_id -->
<g id="node3" class="node">
<title>question_id</title>
<ellipse fill="none" stroke="#111111" stroke-width="1.3" cx="150.52" cy="-587.32" rx="57.6" ry="27.93"/>
<text xml:space="preserve" text-anchor="middle" x="150.52" y="-582.17" font-family="PingFang SC" font-size="22.00">题目ID</text>
</g>
<!-- entity&#45;&#45;question_id -->
<g id="edge2" class="edge">
<title>entity&#45;&#45;question_id</title>
<path fill="none" stroke="#111111" stroke-width="1.2" d="M441.53,-435.49C367.64,-474.04 250.69,-535.06 189.99,-566.72"/>
</g>
<!-- user_id -->
<g id="node4" class="node">
<title>user_id</title>
<ellipse fill="none" stroke="#111111" stroke-width="1.3" cx="865.3" cy="-587.32" rx="57.6" ry="27.93"/>
<text xml:space="preserve" text-anchor="middle" x="865.3" y="-582.17" font-family="PingFang SC" font-size="22.00">用户ID</text>
</g>
<!-- entity&#45;&#45;user_id -->
<g id="edge3" class="edge">
<title>entity&#45;&#45;user_id</title>
<path fill="none" stroke="#111111" stroke-width="1.2" d="M574.29,-435.49C648.18,-474.04 765.13,-535.06 825.83,-566.72"/>
</g>
<!-- content -->
<g id="node5" class="node">
<title>content</title>
<ellipse fill="none" stroke="#111111" stroke-width="1.3" cx="72.83" cy="-400.85" rx="72.83" ry="27.93"/>
<text xml:space="preserve" text-anchor="middle" x="72.83" y="-395.7" font-family="PingFang SC" font-size="22.00">评论内容</text>
</g>
<!-- entity&#45;&#45;content -->
<g id="edge4" class="edge">
<title>entity&#45;&#45;content</title>
<path fill="none" stroke="#111111" stroke-width="1.2" d="M435.58,-400.85C355.36,-400.85 226.65,-400.85 146.06,-400.85"/>
</g>
<!-- parent_id -->
<g id="node6" class="node">
<title>parent_id</title>
<ellipse fill="none" stroke="#111111" stroke-width="1.3" cx="942.99" cy="-400.85" rx="72.3" ry="27.93"/>
<text xml:space="preserve" text-anchor="middle" x="942.99" y="-395.7" font-family="PingFang SC" font-size="22.00">父评论ID</text>
</g>
<!-- entity&#45;&#45;parent_id -->
<g id="edge5" class="edge">
<title>entity&#45;&#45;parent_id</title>
<path fill="none" stroke="#111111" stroke-width="1.2" d="M580.24,-400.85C660.59,-400.85 789.56,-400.85 870.12,-400.85"/>
</g>
<!-- likes -->
<g id="node7" class="node">
<title>likes</title>
<ellipse fill="none" stroke="#111111" stroke-width="1.3" cx="166.06" cy="-183.32" rx="57.6" ry="27.93"/>
<text xml:space="preserve" text-anchor="middle" x="166.06" y="-178.17" font-family="PingFang SC" font-size="22.00">点赞数</text>
</g>
<!-- entity&#45;&#45;likes -->
<g id="edge6" class="edge">
<title>entity&#45;&#45;likes</title>
<path fill="none" stroke="#111111" stroke-width="1.2" d="M453.37,-366.14C382.68,-321.16 261.42,-243.99 201.58,-205.92"/>
</g>
<!-- status -->
<g id="node8" class="node">
<title>status</title>
<ellipse fill="none" stroke="#111111" stroke-width="1.3" cx="849.76" cy="-183.32" rx="57.6" ry="27.93"/>
<text xml:space="preserve" text-anchor="middle" x="849.76" y="-178.17" font-family="PingFang SC" font-size="22.00">状态</text>
</g>
<!-- entity&#45;&#45;status -->
<g id="edge7" class="edge">
<title>entity&#45;&#45;status</title>
<path fill="none" stroke="#111111" stroke-width="1.2" d="M562.45,-366.14C633.14,-321.16 754.41,-243.99 814.24,-205.92"/>
</g>
<!-- create_time -->
<g id="node9" class="node">
<title>create_time</title>
<ellipse fill="none" stroke="#111111" stroke-width="1.3" cx="507.91" cy="-27.93" rx="72.83" ry="27.93"/>
<text xml:space="preserve" text-anchor="middle" x="507.91" y="-22.78" font-family="PingFang SC" font-size="22.00">创建时间</text>
</g>
<!-- entity&#45;&#45;create_time -->
<g id="edge8" class="edge">
<title>entity&#45;&#45;create_time</title>
<path fill="none" stroke="#111111" stroke-width="1.2" d="M507.91,-366.11C507.91,-292.87 507.91,-123.9 507.91,-56.47"/>
</g>
</g>
</svg>
